# xmcd
#
# Track frame offsets:
#	150
#	18120
#	35194
#	52849
#	70797
#	86610
#	107229
#	129709
#	153400
#	173291
#	193736
#	215829
#
# Disc length: 3102 seconds
#
# Revision: 7
# Processed by: cddbd v1.5.2PL0 Copyright (c) Steve Scherf et al.
# Submitted via: audiograbber 1.83.01
#
DISCID=a00c1c0c
DTITLE=Ray Charles - Genius Loves Company
DYEAR=2004
DGENRE=R&B
TTITLE0=Here We Go Again (with Norah Jones)
TTITLE1=Sweet Potato Pie (with James Taylor)
TTITLE2=You Don't Know Me (with Diana Krall)
TTITLE3=Sorry Seems To Be The Hardest Word (with Elton John)
TTITLE4=Fever (with Natalie Cole)
TTITLE5=Do I Ever Cross Your Mind? (with Bonnie Raitt)
TTITLE6=It Was A Very Good Year (with Willie Nelson)
TTITLE7=Hey Girl (with Michael McDonald)
TTITLE8=Sinner's Prayer (with B.B. King)
TTITLE9=Heaven Help Us All (with Gladys Knight)
TTITLE10=Over The Rainbow (with Johnny Mathis)
TTITLE11=Crazy Love (with Van Morrison)
EXTD=YEAR: 2004
EXTT0=
EXTT1=
EXTT2=
EXTT3=
EXTT4=
EXTT5=
EXTT6=
EXTT7=
EXTT8=
EXTT9=
EXTT10=
EXTT11=
PLAYORDER=
